{
  "source": "C:\\Users\\Peter\\Desktop\\stuff\\MIUN\\quantitative_research\\video_compression\\videos\\HEVC_CLASS_B\\ParkScene_1920x1080_24.y4m",
  "output": "C:\\Users\\Peter\\Desktop\\stuff\\MIUN\\quantitative_research\\video_compression\\compressed_videos\\HEVC_CLASS_B\\hevc\\2.5\\ParkScene_1920x1080_24_hevc.mp4",
  "codec": "hevc",
  "ok": "Input #0, yuv4mpegpipe, from 'C:\\Users\\Peter\\Desktop\\stuff\\MIUN\\quantitative_research\\video_compression\\videos\\HEVC_CLASS_B\\ParkScene_1920x1080_24.y4m':\n  Duration: 00:00:10.00, start: 0.000000, bitrate: 597198 kb/s\n  Stream #0:0: Video: rawvideo (I420 / 0x30323449), yuv420p(progressive), 1920x1080, 24 fps, 24 tbr, 24 tbn\n[out#0/mp4 @ 0000016a10d6b680] Codec AVOption b:a (set bitrate (in bits/s)) has not been used for any stream. The most likely reason is either wrong type (e.g. a video option with no video streams) or that it is a private option of some decoder which was not actually used for any stream.\nStream mapping:\n  Stream #0:0 -> #0:0 (rawvideo (native) -> hevc (libx265))\nPress [q] to stop, [?] for help\n[libx265 @ 0000016a10d6cac0] Unknown option: \"aq-mode.\nx265 [info]: HEVC encoder version 4.1+190-8f11c33ac\nx265 [info]: build info [Windows][GCC 15.1.0][64 bit] 10bit\nx265 [info]: using cpu capabilities: MMX2 SSE2Fast LZCNT SSSE3 SSE4.2 AVX FMA3 BMI2 AVX2\nx265 [info]: Main 10 profile, Level-4 (Main tier)\nx265 [info]: Thread pool created using 12 threads\nx265 [info]: Slices                              : 1\nx265 [info]: frame threads / pool features       : 3 / wpp(17 rows)\nx265 [info]: Coding QT: max CU size, min CU size : 64 / 8\nx265 [info]: Residual QT: max TU size, max depth : 32 / 1 inter / 1 intra\nx265 [info]: ME / range / subpel / merge         : star / 57 / 3 / 3\nx265 [info]: Keyframe min / max / scenecut / bias  : 24 / 250 / 40 / 5.00 \nx265 [info]: Lookahead / bframes / badapt        : 25 / 4 / 2\nx265 [info]: b-pyramid / weightp / weightb       : 1 / 1 / 0\nx265 [info]: References / ref-limit  cu / depth  : 4 / on / on\nx265 [info]: AQ: mode / str / qg-size / cu-tree  : 2 / 1.0 / 32 / 1\nx265 [info]: Rate Control / qCompress            : ABR-2500 kbps / 0.60\nx265 [info]: VBV/HRD buffer / max-rate / init    : 2500 / 2500 / 0.750\nx265 [info]: tools: rect limit-modes rd=4 psy-rd=2.00 rdoq=2 psy-rdoq=1.00\nx265 [info]: tools: rskip mode=1 signhide tmvp strong-intra-smoothing lslices=4\nx265 [info]: tools: deblock sao dhdr10-info\nOutput #0, mp4, to 'C:\\Users\\Peter\\Desktop\\stuff\\MIUN\\quantitative_research\\video_compression\\compressed_videos\\HEVC_CLASS_B\\hevc\\2.5\\ParkScene_1920x1080_24_hevc.mp4':\n  Metadata:\n    encoder         : Lavf62.3.100\n  Stream #0:0: Video: hevc (hev1 / 0x31766568), yuv420p10le(tv, progressive), 1920x1080, q=2-31, 2500 kb/s, 24 fps, 12288 tbn\n    Metadata:\n      encoder         : Lavc62.11.100 libx265\n    Side data:\n      cpb: bitrate max/min/avg: 2500000/0/2500000 buffer size: 2500000 vbv_delay: N/A\nframe=    0 fps=0.0 q=0.0 size=       0KiB time=N/A bitrate=N/A speed=N/A elapsed=0:00:00.51    \nframe=    0 fps=0.0 q=0.0 size=       0KiB time=N/A bitrate=N/A speed=N/A elapsed=0:00:01.03    \nframe=    0 fps=0.0 q=0.0 size=       0KiB time=N/A bitrate=N/A speed=N/A elapsed=0:00:01.54    \nframe=    0 fps=0.0 q=0.0 size=       0KiB time=N/A bitrate=N/A speed=N/A elapsed=0:00:02.06    \nframe=    0 fps=0.0 q=0.0 size=       0KiB time=N/A bitrate=N/A speed=N/A elapsed=0:00:02.57    \nframe=    0 fps=0.0 q=0.0 size=       0KiB time=N/A bitrate=N/A speed=N/A elapsed=0:00:03.08    \nframe=    0 fps=0.0 q=0.0 size=       0KiB time=N/A bitrate=N/A speed=N/A elapsed=0:00:03.60    \nframe=    1 fps=0.2 q=30.8 size=       0KiB time=-00:00:00.04 bitrate=N/A speed=N/A elapsed=0:00:04.12    \nframe=    2 fps=0.4 q=37.3 size=       0KiB time=00:00:00.00 bitrate=N/A speed=   0x elapsed=0:00:04.63    \nframe=    3 fps=0.6 q=41.0 size=       0KiB time=00:00:00.04 bitrate=   8.4kbits/s speed=0.00809x elapsed=0:00:05.15    \nframe=    4 fps=0.7 q=43.6 size=       0KiB time=00:00:00.08 bitrate=   4.2kbits/s speed=0.0147x elapsed=0:00:05.66    \nframe=    5 fps=0.8 q=40.8 size=       0KiB time=00:00:00.12 bitrate=   2.8kbits/s speed=0.0202x elapsed=0:00:06.18    \nframe=    6 fps=0.9 q=34.0 size=       0KiB time=00:00:00.16 bitrate=   2.1kbits/s speed=0.0249x elapsed=0:00:06.70    \nframe=    7 fps=1.0 q=36.9 size=       0KiB time=00:00:00.20 bitrate=   1.7kbits/s speed=0.0289x elapsed=0:00:07.21    \nframe=    7 fps=0.9 q=36.9 size=       0KiB time=00:00:00.20 bitrate=   1.7kbits/s speed=0.0269x elapsed=0:00:07.73    \nframe=    8 fps=1.0 q=36.8 size=       0KiB time=00:00:00.25 bitrate=   1.4kbits/s speed=0.0303x elapsed=0:00:08.24    \nframe=    9 fps=1.0 q=36.9 size=       0KiB time=00:00:00.29 bitrate=   1.2kbits/s speed=0.0333x elapsed=0:00:08.76    \nframe=   11 fps=1.2 q=35.9 size=       0KiB time=00:00:00.37 bitrate=   0.9kbits/s speed=0.0404x elapsed=0:00:09.27    \nframe=   11 fps=1.1 q=35.9 size=       0KiB time=00:00:00.37 bitrate=   0.9kbits/s speed=0.0383x elapsed=0:00:09.79    \nframe=   13 fps=1.3 q=37.8 size=       0KiB time=00:00:00.45 bitrate=   0.8kbits/s speed=0.0444x elapsed=0:00:10.31    \nframe=   13 fps=1.2 q=37.8 size=       0KiB time=00:00:00.45 bitrate=   0.8kbits/s speed=0.0423x elapsed=0:00:10.83    \nframe=   15 fps=1.3 q=36.7 size=       0KiB time=00:00:00.54 bitrate=   0.6kbits/s speed=0.0478x elapsed=0:00:11.33    \nframe=   16 fps=1.3 q=38.1 size=       0KiB time=00:00:00.58 bitrate=   0.6kbits/s speed=0.0492x elapsed=0:00:11.86    \nframe=   17 fps=1.4 q=38.1 size=       0KiB time=00:00:00.62 bitrate=   0.6kbits/s speed=0.0505x elapsed=0:00:12.37    \nframe=   18 fps=1.4 q=37.8 size=       0KiB time=00:00:00.66 bitrate=   0.5kbits/s speed=0.0517x elapsed=0:00:12.89    \nframe=   19 fps=1.4 q=30.9 size=       0KiB time=00:00:00.70 bitrate=   0.5kbits/s speed=0.0528x elapsed=0:00:13.40    \nframe=   20 fps=1.4 q=34.9 size=     256KiB time=00:00:00.75 bitrate=2796.7kbits/s speed=0.0538x elapsed=0:00:13.92    \nframe=   21 fps=1.5 q=37.7 size=     256KiB time=00:00:00.79 bitrate=2649.5kbits/s speed=0.0547x elapsed=0:00:14.46    \nframe=   21 fps=1.4 q=37.7 size=     256KiB time=00:00:00.79 bitrate=2649.5kbits/s speed=0.0528x elapsed=0:00:14.99    \nframe=   22 fps=1.4 q=38.0 size=     256KiB time=00:00:00.83 bitrate=2517.0kbits/s speed=0.0538x elapsed=0:00:15.50    \nframe=   23 fps=1.4 q=30.9 size=     256KiB time=00:00:00.87 bitrate=2397.1kbits/s speed=0.0546x elapsed=0:00:16.01    \nframe=   24 fps=1.5 q=34.5 size=     256KiB time=00:00:00.91 bitrate=2288.2kbits/s speed=0.0555x elapsed=0:00:16.52    \nframe=   25 fps=1.5 q=37.6 size=     256KiB time=00:00:00.95 bitrate=2188.7kbits/s speed=0.0562x elapsed=0:00:17.04    \nframe=   26 fps=1.5 q=37.8 size=     256KiB time=00:00:01.00 bitrate=2097.5kbits/s speed=0.0569x elapsed=0:00:17.57    \nframe=   27 fps=1.5 q=37.9 size=     256KiB time=00:00:01.04 bitrate=2013.6kbits/s speed=0.0576x elapsed=0:00:18.07    \nframe=   28 fps=1.5 q=30.9 size=     256KiB time=00:00:01.08 bitrate=1936.2kbits/s speed=0.0583x elapsed=0:00:18.59    \nframe=   29 fps=1.5 q=34.9 size=     256KiB time=00:00:01.12 bitrate=1864.4kbits/s speed=0.0589x elapsed=0:00:19.11    \nframe=   30 fps=1.5 q=37.4 size=     256KiB time=00:00:01.16 bitrate=1797.9kbits/s speed=0.0595x elapsed=0:00:19.62    \nframe=   31 fps=1.5 q=37.6 size=     256KiB time=00:00:01.20 bitrate=1735.9kbits/s speed=0.06x elapsed=0:00:20.14    \nframe=   32 fps=1.5 q=30.8 size=     256KiB time=00:00:01.25 bitrate=1678.0kbits/s speed=0.0605x elapsed=0:00:20.65    \nframe=   33 fps=1.6 q=35.1 size=     256KiB time=00:00:01.29 bitrate=1623.9kbits/s speed=0.061x elapsed=0:00:21.16    \nframe=   34 fps=1.6 q=38.0 size=     256KiB time=00:00:01.33 bitrate=1573.1kbits/s speed=0.0615x elapsed=0:00:21.68    \nframe=   34 fps=1.5 q=38.0 size=     256KiB time=00:00:01.33 bitrate=1573.1kbits/s speed=0.0601x elapsed=0:00:22.20    \nframe=   36 fps=1.6 q=30.7 size=     256KiB time=00:00:01.41 bitrate=1480.6kbits/s speed=0.0624x elapsed=0:00:22.71    \nframe=   37 fps=1.6 q=34.7 size=     256KiB time=00:00:01.45 bitrate=1438.3kbits/s speed=0.0628x elapsed=0:00:23.22    \nframe=   37 fps=1.6 q=34.7 size=     256KiB time=00:00:01.45 bitrate=1438.3kbits/s speed=0.0614x elapsed=0:00:23.74    \nframe=   38 fps=1.6 q=37.7 size=     256KiB time=00:00:01.50 bitrate=1398.3kbits/s speed=0.0618x elapsed=0:00:24.27    \nframe=   40 fps=1.6 q=30.8 size=     256KiB time=00:00:01.58 bitrate=1324.7kbits/s speed=0.0638x elapsed=0:00:24.81    \nframe=   41 fps=1.6 q=35.2 size=     512KiB time=00:00:01.62 bitrate=2581.3kbits/s speed=0.0642x elapsed=0:00:25.32    \nframe=   41 fps=1.6 q=35.2 size=     512KiB time=00:00:01.62 bitrate=2581.3kbits/s speed=0.0629x elapsed=0:00:25.84    \nframe=   41 fps=1.6 q=35.2 size=     512KiB time=00:00:01.62 bitrate=2581.3kbits/s speed=0.0617x elapsed=0:00:26.35    \nframe=   42 fps=1.6 q=38.0 size=     512KiB time=00:00:01.66 bitrate=2516.8kbits/s speed=0.062x elapsed=0:00:26.87    \nframe=   43 fps=1.6 q=37.7 size=     512KiB time=00:00:01.70 bitrate=2455.4kbits/s speed=0.0624x elapsed=0:00:27.38    \nframe=   45 fps=1.6 q=35.0 size=     512KiB time=00:00:01.79 bitrate=2341.2kbits/s speed=0.0642x elapsed=0:00:27.91    \nframe=   45 fps=1.6 q=35.0 size=     512KiB time=00:00:01.79 bitrate=2341.2kbits/s speed=0.063x elapsed=0:00:28.44    \nframe=   46 fps=1.6 q=38.1 size=     512KiB time=00:00:01.83 bitrate=2288.0kbits/s speed=0.0633x elapsed=0:00:28.97    \nframe=   47 fps=1.6 q=38.1 size=     512KiB time=00:00:01.87 bitrate=2237.1kbits/s speed=0.0636x elapsed=0:00:29.47    \nframe=   49 fps=1.6 q=36.3 size=     512KiB time=00:00:01.95 bitrate=2142.0kbits/s speed=0.0653x elapsed=0:00:29.99    \nframe=   50 fps=1.6 q=38.2 size=     512KiB time=00:00:02.00 bitrate=2097.3kbits/s speed=0.0655x elapsed=0:00:30.51    \nframe=   51 fps=1.6 q=37.9 size=     512KiB time=00:00:02.04 bitrate=2054.5kbits/s speed=0.0658x elapsed=0:00:31.02    \nframe=   52 fps=1.6 q=37.8 size=     512KiB time=00:00:02.08 bitrate=2013.4kbits/s speed=0.066x elapsed=0:00:31.55    \nframe=   53 fps=1.7 q=31.1 size=     512KiB time=00:00:02.12 bitrate=1974.0kbits/s speed=0.0663x elapsed=0:00:32.07    \nframe=   54 fps=1.7 q=35.1 size=     512KiB time=00:00:02.16 bitrate=1936.0kbits/s speed=0.0665x elapsed=0:00:32.57    \nframe=   55 fps=1.7 q=37.9 size=     512KiB time=00:00:02.20 bitrate=1899.5kbits/s speed=0.0667x elapsed=0:00:33.09    \nframe=   57 fps=1.7 q=30.8 size=     512KiB time=00:00:02.29 bitrate=1830.4kbits/s speed=0.0682x elapsed=0:00:33.60    \nframe=   58 fps=1.7 q=35.2 size=     512KiB time=00:00:02.33 bitrate=1797.7kbits/s speed=0.0684x elapsed=0:00:34.12    \nframe=   59 fps=1.7 q=37.8 size=     512KiB time=00:00:02.37 bitrate=1766.2kbits/s speed=0.0686x elapsed=0:00:34.64    \nframe=   59 fps=1.7 q=37.8 size=     512KiB time=00:00:02.37 bitrate=1766.2kbits/s speed=0.0675x elapsed=0:00:35.16    \nframe=   61 fps=1.7 q=30.9 size=     512KiB time=00:00:02.45 bitrate=1706.3kbits/s speed=0.0689x elapsed=0:00:35.67    \nframe=   62 fps=1.7 q=35.3 size=     768KiB time=00:00:02.50 bitrate=2516.7kbits/s speed=0.0691x elapsed=0:00:36.19    \nframe=   63 fps=1.7 q=38.1 size=     768KiB time=00:00:02.54 bitrate=2475.5kbits/s speed=0.0692x elapsed=0:00:36.71    \nframe=   64 fps=1.7 q=37.8 size=     768KiB time=00:00:02.58 bitrate=2435.5kbits/s speed=0.0694x elapsed=0:00:37.22    \nframe=   66 fps=1.7 q=35.3 size=     768KiB time=00:00:02.66 bitrate=2359.4kbits/s speed=0.0706x elapsed=0:00:37.75    \nframe=   66 fps=1.7 q=35.3 size=     768KiB time=00:00:02.66 bitrate=2359.4kbits/s speed=0.0697x elapsed=0:00:38.26    \nframe=   66 fps=1.7 q=35.3 size=     768KiB time=00:00:02.66 bitrate=2359.4kbits/s speed=0.0688x elapsed=0:00:38.77    \nframe=   66 fps=1.7 q=35.3 size=     768KiB time=00:00:02.66 bitrate=2359.4kbits/s speed=0.0678x elapsed=0:00:39.33    \nframe=   67 fps=1.7 q=37.9 size=     768KiB time=00:00:02.70 bitrate=2323.1kbits/s speed=0.0679x elapsed=0:00:39.85    \nframe=   68 fps=1.7 q=37.5 size=     768KiB time=00:00:02.75 bitrate=2287.9kbits/s speed=0.0681x elapsed=0:00:40.36    \nframe=   68 fps=1.7 q=37.5 size=     768KiB time=00:00:02.75 bitrate=2287.9kbits/s speed=0.0673x elapsed=0:00:40.88    \nframe=   69 fps=1.7 q=29.9 size=     768KiB time=00:00:02.79 bitrate=2253.8kbits/s speed=0.0674x elapsed=0:00:41.41    \nframe=   69 fps=1.6 q=29.9 size=     768KiB time=00:00:02.79 bitrate=2253.8kbits/s speed=0.0666x elapsed=0:00:41.94    \nframe=   70 fps=1.6 q=35.8 size=     768KiB time=00:00:02.83 bitrate=2220.6kbits/s speed=0.0667x elapsed=0:00:42.49    \nframe=   71 fps=1.7 q=37.3 size=     768KiB time=00:00:02.87 bitrate=2188.5kbits/s speed=0.0668x elapsed=0:00:43.02    \nframe=   71 fps=1.6 q=37.3 size=     768KiB time=00:00:02.87 bitrate=2188.5kbits/s speed=0.066x elapsed=0:00:43.53    \nframe=   71 fps=1.6 q=37.3 size=     768KiB time=00:00:02.87 bitrate=2188.5kbits/s speed=0.0652x elapsed=0:00:44.07    \nframe=   72 fps=1.6 q=37.4 size=     768KiB time=00:00:02.91 bitrate=2157.2kbits/s speed=0.0654x elapsed=0:00:44.60    \nframe=   72 fps=1.6 q=37.4 size=     768KiB time=00:00:02.91 bitrate=2157.2kbits/s speed=0.0646x elapsed=0:00:45.13    \nframe=   73 fps=1.6 q=37.5 size=     768KiB time=00:00:02.95 bitrate=2126.8kbits/s speed=0.0648x elapsed=0:00:45.65    \nframe=   74 fps=1.6 q=31.1 size=     768KiB time=00:00:03.00 bitrate=2097.3kbits/s speed=0.065x elapsed=0:00:46.16    \nframe=   74 fps=1.6 q=31.1 size=     768KiB time=00:00:03.00 bitrate=2097.3kbits/s speed=0.0643x elapsed=0:00:46.68    \nframe=   74 fps=1.6 q=31.1 size=     768KiB time=00:00:03.00 bitrate=2097.3kbits/s speed=0.0635x elapsed=0:00:47.22    \nframe=   76 fps=1.6 q=37.4 size=     768KiB time=00:00:03.08 bitrate=2040.6kbits/s speed=0.0646x elapsed=0:00:47.73    \nframe=   76 fps=1.6 q=37.4 size=     768KiB time=00:00:03.08 bitrate=2040.6kbits/s speed=0.0639x elapsed=0:00:48.25    \nframe=   77 fps=1.6 q=37.7 size=     768KiB time=00:00:03.12 bitrate=2013.4kbits/s speed=0.0641x elapsed=0:00:48.78    \nframe=   78 fps=1.6 q=38.2 size=     768KiB time=00:00:03.16 bitrate=1986.9kbits/s speed=0.0642x elapsed=0:00:49.30    \nframe=   78 fps=1.6 q=38.2 size=     768KiB time=00:00:03.16 bitrate=1986.9kbits/s speed=0.0636x elapsed=0:00:49.82    \nframe=   78 fps=1.5 q=38.2 size=     768KiB time=00:00:03.16 bitrate=1986.9kbits/s speed=0.0629x elapsed=0:00:50.36    \nframe=   79 fps=1.6 q=31.0 size=     768KiB time=00:00:03.20 bitrate=1961.1kbits/s speed=0.063x elapsed=0:00:50.89    \nframe=   79 fps=1.5 q=31.0 size=     768KiB time=00:00:03.20 bitrate=1961.1kbits/s speed=0.0624x elapsed=0:00:51.43    \nframe=   80 fps=1.5 q=35.5 size=     768KiB time=00:00:03.25 bitrate=1935.9kbits/s speed=0.0625x elapsed=0:00:51.97    \nframe=   80 fps=1.5 q=35.5 size=     768KiB time=00:00:03.25 bitrate=1935.9kbits/s speed=0.0619x elapsed=0:00:52.50    \nframe=   81 fps=1.5 q=38.1 size=    1024KiB time=00:00:03.25 bitrate=2581.2kbits/s speed=0.0613x elapsed=0:00:53.02    \nframe=   81 fps=1.5 q=38.1 size=    1024KiB time=00:00:03.29 bitrate=2548.5kbits/s speed=0.0615x elapsed=0:00:53.54    \nframe=   82 fps=1.5 q=37.9 size=    1024KiB time=00:00:03.33 bitrate=2516.7kbits/s speed=0.0617x elapsed=0:00:54.06    \nframe=   82 fps=1.5 q=37.9 size=    1024KiB time=00:00:03.33 bitrate=2516.7kbits/s speed=0.0611x elapsed=0:00:54.57    \nframe=   83 fps=1.5 q=30.9 size=    1024KiB time=00:00:03.37 bitrate=2485.6kbits/s speed=0.0613x elapsed=0:00:55.09    \nframe=   84 fps=1.5 q=35.2 size=    1024KiB time=00:00:03.41 bitrate=2455.3kbits/s speed=0.0614x elapsed=0:00:55.60    \nframe=   84 fps=1.5 q=35.2 size=    1024KiB time=00:00:03.41 bitrate=2455.3kbits/s speed=0.0609x elapsed=0:00:56.13    \nframe=   84 fps=1.5 q=35.2 size=    1024KiB time=00:00:03.41 bitrate=2455.3kbits/s speed=0.0603x elapsed=0:00:56.67    \nframe=   85 fps=1.5 q=38.0 size=    1024KiB time=00:00:03.45 bitrate=2425.7kbits/s speed=0.0604x elapsed=0:00:57.21    \nframe=   85 fps=1.5 q=38.0 size=    1024KiB time=00:00:03.45 bitrate=2425.7kbits/s speed=0.0599x elapsed=0:00:57.76    \nframe=   85 fps=1.5 q=38.0 size=    1024KiB time=00:00:03.45 bitrate=2425.7kbits/s speed=0.0593x elapsed=0:00:58.28    \nframe=   86 fps=1.5 q=37.6 size=    1024KiB time=00:00:03.45 bitrate=2425.7kbits/s speed=0.0588x elapsed=0:00:58.84    \nframe=   86 fps=1.4 q=37.6 size=    1024KiB time=00:00:03.50 bitrate=2396.8kbits/s speed=0.0589x elapsed=0:00:59.39    \nframe=   86 fps=1.4 q=37.6 size=    1024KiB time=00:00:03.50 bitrate=2396.8kbits/s speed=0.0584x elapsed=0:00:59.98    \nframe=   86 fps=1.4 q=37.6 size=    1024KiB time=00:00:03.50 bitrate=2396.8kbits/s speed=0.0578x elapsed=0:01:00.50    \nframe=   86 fps=1.4 q=37.6 size=    1024KiB time=00:00:03.50 bitrate=2396.8kbits/s speed=0.0573x elapsed=0:01:01.03    \nframe=   87 fps=1.4 q=29.9 size=    1024KiB time=00:00:03.54 bitrate=2368.6kbits/s speed=0.0575x elapsed=0:01:01.59    \nframe=   87 fps=1.4 q=29.9 size=    1024KiB time=00:00:03.54 bitrate=2368.6kbits/s speed=0.057x elapsed=0:01:02.15    \nframe=   87 fps=1.4 q=29.9 size=    1024KiB time=00:00:03.54 bitrate=2368.6kbits/s speed=0.0565x elapsed=0:01:02.70    \nframe=   88 fps=1.4 q=33.8 size=    1024KiB time=00:00:03.58 bitrate=2341.1kbits/s speed=0.0566x elapsed=0:01:03.26    \nframe=   88 fps=1.4 q=33.8 size=    1024KiB time=00:00:03.58 bitrate=2341.1kbits/s speed=0.0561x elapsed=0:01:03.81    \nframe=   89 fps=1.4 q=37.7 size=    1024KiB time=00:00:03.62 bitrate=2314.2kbits/s speed=0.0563x elapsed=0:01:04.36    \nframe=   89 fps=1.4 q=37.7 size=    1024KiB time=00:00:03.62 bitrate=2314.2kbits/s speed=0.0559x elapsed=0:01:04.89    \nframe=   89 fps=1.4 q=37.7 size=    1024KiB time=00:00:03.62 bitrate=2314.2kbits/s speed=0.0554x elapsed=0:01:05.42    \nframe=   89 fps=1.3 q=37.7 size=    1024KiB time=00:00:03.62 bitrate=2314.2kbits/s speed=0.0549x elapsed=0:01:05.97    \nframe=   90 fps=1.4 q=37.8 size=    1024KiB time=00:00:03.66 bitrate=2287.9kbits/s speed=0.0551x elapsed=0:01:06.50    \nframe=   90 fps=1.3 q=37.8 size=    1024KiB time=00:00:03.66 bitrate=2287.9kbits/s speed=0.0547x elapsed=0:01:07.01    \nframe=   90 fps=1.3 q=37.8 size=    1024KiB time=00:00:03.66 bitrate=2287.9kbits/s speed=0.0543x elapsed=0:01:07.52    \nframe=   91 fps=1.3 q=37.7 size=    1024KiB time=00:00:03.70 bitrate=2262.2kbits/s speed=0.0545x elapsed=0:01:08.07    \nframe=   92 fps=1.3 q=31.1 size=    1024KiB time=00:00:03.75 bitrate=2237.1kbits/s speed=0.0547x elapsed=0:01:08.59    \nframe=   93 fps=1.3 q=34.8 size=    1024KiB time=00:00:03.79 bitrate=2212.5kbits/s speed=0.0549x elapsed=0:01:09.12    \nframe=   93 fps=1.3 q=34.8 size=    1024KiB time=00:00:03.79 bitrate=2212.5kbits/s speed=0.0544x elapsed=0:01:09.65    \nframe=   94 fps=1.3 q=37.7 size=    1024KiB time=00:00:03.83 bitrate=2188.4kbits/s speed=0.0546x elapsed=0:01:10.19    \nframe=   95 fps=1.3 q=37.3 size=    1024KiB time=00:00:03.87 bitrate=2164.9kbits/s speed=0.0548x elapsed=0:01:10.70    \nframe=   95 fps=1.3 q=37.3 size=    1024KiB time=00:00:03.87 bitrate=2164.9kbits/s speed=0.0544x elapsed=0:01:11.22    \nframe=   96 fps=1.3 q=30.1 size=    1024KiB time=00:00:03.91 bitrate=2141.9kbits/s speed=0.0546x elapsed=0:01:11.75    \nframe=   97 fps=1.3 q=35.3 size=    1024KiB time=00:00:03.95 bitrate=2119.3kbits/s speed=0.0548x elapsed=0:01:12.25    \nframe=   97 fps=1.3 q=35.3 size=    1024KiB time=00:00:03.95 bitrate=2119.3kbits/s speed=0.0544x elapsed=0:01:12.79    \nframe=   98 fps=1.3 q=38.1 size=    1024KiB time=00:00:04.00 bitrate=2097.2kbits/s speed=0.0546x elapsed=0:01:13.31    \nframe=   98 fps=1.3 q=38.1 size=    1024KiB time=00:00:04.00 bitrate=2097.2kbits/s speed=0.0542x elapsed=0:01:13.83    \nframe=   99 fps=1.3 q=37.4 size=    1024KiB time=00:00:04.04 bitrate=2075.6kbits/s speed=0.0544x elapsed=0:01:14.35    \nframe=   99 fps=1.3 q=37.4 size=    1024KiB time=00:00:04.04 bitrate=2075.6kbits/s speed=0.054x elapsed=0:01:14.88    \nframe=   99 fps=1.3 q=37.4 size=    1024KiB time=00:00:04.04 bitrate=2075.6kbits/s speed=0.0536x elapsed=0:01:15.39    \nframe=  100 fps=1.3 q=30.7 size=    1024KiB time=00:00:04.08 bitrate=2054.4kbits/s speed=0.0538x elapsed=0:01:15.93    \nframe=  100 fps=1.3 q=30.7 size=    1024KiB time=00:00:04.08 bitrate=2054.4kbits/s speed=0.0534x elapsed=0:01:16.49    \nframe=  101 fps=1.3 q=36.0 size=    1280KiB time=00:00:04.12 bitrate=2542.1kbits/s speed=0.0536x elapsed=0:01:17.02    \nframe=  101 fps=1.3 q=36.0 size=    1280KiB time=00:00:04.12 bitrate=2542.1kbits/s speed=0.0532x elapsed=0:01:17.55    \nframe=  101 fps=1.3 q=36.0 size=    1280KiB time=00:00:04.12 bitrate=2542.1kbits/s speed=0.0528x elapsed=0:01:18.07    \nframe=  102 fps=1.3 q=37.5 size=    1280KiB time=00:00:04.16 bitrate=2516.7kbits/s speed=0.053x elapsed=0:01:18.61    \nframe=  102 fps=1.3 q=37.5 size=    1280KiB time=00:00:04.16 bitrate=2516.7kbits/s speed=0.0526x elapsed=0:01:19.16    \nframe=  103 fps=1.3 q=37.3 size=    1280KiB time=00:00:04.20 bitrate=2491.7kbits/s speed=0.0528x elapsed=0:01:19.70    \nframe=  103 fps=1.3 q=37.3 size=    1280KiB time=00:00:04.20 bitrate=2491.7kbits/s speed=0.0524x elapsed=0:01:20.24    \nframe=  105 fps=1.3 q=29.7 size=    1280KiB time=00:00:04.29 bitrate=2443.4kbits/s speed=0.0531x elapsed=0:01:20.75    \nframe=  105 fps=1.3 q=29.7 size=    1280KiB time=00:00:04.29 bitrate=2443.4kbits/s speed=0.0528x elapsed=0:01:21.26    \nframe=  105 fps=1.3 q=29.7 size=    1280KiB time=00:00:04.29 bitrate=2443.4kbits/s speed=0.0525x elapsed=0:01:21.80    \nframe=  106 fps=1.3 q=34.7 size=    1280KiB time=00:00:04.33 bitrate=2419.9kbits/s speed=0.0526x elapsed=0:01:22.33    \nframe=  106 fps=1.3 q=34.7 size=    1280KiB time=00:00:04.33 bitrate=2419.9kbits/s speed=0.0523x elapsed=0:01:22.84    \nframe=  107 fps=1.3 q=37.2 size=    1280KiB time=00:00:04.37 bitrate=2396.8kbits/s speed=0.0525x elapsed=0:01:23.38    \nframe=  108 fps=1.3 q=37.5 size=    1280KiB time=00:00:04.41 bitrate=2374.2kbits/s speed=0.0526x elapsed=0:01:23.91    \nframe=  109 fps=1.3 q=30.6 size=    1280KiB time=00:00:04.45 bitrate=2352.0kbits/s speed=0.0528x elapsed=0:01:24.43    \nframe=  110 fps=1.3 q=34.4 size=    1280KiB time=00:00:04.50 bitrate=2330.2kbits/s speed=0.0529x elapsed=0:01:24.99    \nframe=  110 fps=1.3 q=34.4 size=    1280KiB time=00:00:04.50 bitrate=2330.2kbits/s speed=0.0526x elapsed=0:01:25.53    \nframe=  110 fps=1.3 q=34.4 size=    1280KiB time=00:00:04.50 bitrate=2330.2kbits/s speed=0.0523x elapsed=0:01:26.05    \nframe=  110 fps=1.3 q=34.4 size=    1280KiB time=00:00:04.50 bitrate=2330.2kbits/s speed=0.052x elapsed=0:01:26.58    \nframe=  111 fps=1.3 q=37.4 size=    1280KiB time=00:00:04.54 bitrate=2308.9kbits/s speed=0.0521x elapsed=0:01:27.09    \nframe=  111 fps=1.3 q=37.4 size=    1280KiB time=00:00:04.54 bitrate=2308.9kbits/s speed=0.0518x elapsed=0:01:27.62    \nframe=  111 fps=1.3 q=37.4 size=    1280KiB time=00:00:04.54 bitrate=2308.9kbits/s speed=0.0515x elapsed=0:01:28.14    \nframe=  111 fps=1.3 q=37.4 size=    1280KiB time=00:00:04.54 bitrate=2308.9kbits/s speed=0.0512x elapsed=0:01:28.64    \nframe=  112 fps=1.3 q=36.7 size=    1280KiB time=00:00:04.58 bitrate=2287.9kbits/s speed=0.0514x elapsed=0:01:29.17    \nframe=  113 fps=1.3 q=30.2 size=    1280KiB time=00:00:04.62 bitrate=2267.3kbits/s speed=0.0516x elapsed=0:01:29.70    \nframe=  114 fps=1.3 q=35.3 size=    1280KiB time=00:00:04.66 bitrate=2247.0kbits/s speed=0.0517x elapsed=0:01:30.21    \nframe=  115 fps=1.3 q=36.1 size=    1280KiB time=00:00:04.70 bitrate=2227.1kbits/s speed=0.0519x elapsed=0:01:30.73    \nframe=  115 fps=1.3 q=36.1 size=    1280KiB time=00:00:04.70 bitrate=2227.1kbits/s speed=0.0516x elapsed=0:01:31.26    \nframe=  116 fps=1.3 q=36.2 size=    1280KiB time=00:00:04.75 bitrate=2207.6kbits/s speed=0.0517x elapsed=0:01:31.80    \nframe=  116 fps=1.3 q=36.2 size=    1280KiB time=00:00:04.75 bitrate=2207.6kbits/s speed=0.0514x elapsed=0:01:32.32    \nframe=  117 fps=1.3 q=36.2 size=    1280KiB time=00:00:04.79 bitrate=2188.4kbits/s speed=0.0516x elapsed=0:01:32.85    \nframe=  118 fps=1.3 q=29.6 size=    1280KiB time=00:00:04.83 bitrate=2169.5kbits/s speed=0.0518x elapsed=0:01:33.37    \nframe=  119 fps=1.3 q=30.6 size=    1280KiB time=00:00:04.87 bitrate=2151.0kbits/s speed=0.0519x elapsed=0:01:33.92    \nframe=  120 fps=1.3 q=36.9 size=    1280KiB time=00:00:04.87 bitrate=2151.0kbits/s speed=0.0516x elapsed=0:01:34.44    \nframe=  121 fps=1.3 q=36.2 size=    1280KiB time=00:00:04.95 bitrate=2114.8kbits/s speed=0.0522x elapsed=0:01:34.97    \nframe=  121 fps=1.3 q=36.2 size=    1280KiB time=00:00:04.95 bitrate=2114.8kbits/s speed=0.0519x elapsed=0:01:35.51    \nframe=  122 fps=1.3 q=36.6 size=    1280KiB time=00:00:05.00 bitrate=2097.2kbits/s speed=0.0521x elapsed=0:01:36.03    \nframe=  123 fps=1.3 q=29.9 size=    1280KiB time=00:00:05.04 bitrate=2079.9kbits/s speed=0.0522x elapsed=0:01:36.54    \nframe=  124 fps=1.3 q=34.0 size=    1536KiB time=00:00:05.04 bitrate=2495.9kbits/s speed=0.0519x elapsed=0:01:37.06    \nframe=  124 fps=1.3 q=34.0 size=    1536KiB time=00:00:05.08 bitrate=2475.4kbits/s speed=0.0521x elapsed=0:01:37.59    \nframe=  125 fps=1.3 q=37.3 size=    1536KiB time=00:00:05.12 bitrate=2455.3kbits/s speed=0.0522x elapsed=0:01:38.13    \nframe=  125 fps=1.3 q=37.3 size=    1536KiB time=00:00:05.12 bitrate=2455.3kbits/s speed=0.052x elapsed=0:01:38.64    \nframe=  125 fps=1.3 q=37.3 size=    1536KiB time=00:00:05.12 bitrate=2455.3kbits/s speed=0.0517x elapsed=0:01:39.16    \nframe=  125 fps=1.3 q=37.3 size=    1536KiB time=00:00:05.12 bitrate=2455.3kbits/s speed=0.0514x elapsed=0:01:39.68    \nframe=  127 fps=1.3 q=29.9 size=    1536KiB time=00:00:05.20 bitrate=2416.0kbits/s speed=0.052x elapsed=0:01:40.21    \nframe=  127 fps=1.3 q=29.9 size=    1536KiB time=00:00:05.20 bitrate=2416.0kbits/s speed=0.0517x elapsed=0:01:40.74    \nframe=  128 fps=1.3 q=33.2 size=    1536KiB time=00:00:05.25 bitrate=2396.8kbits/s speed=0.0518x elapsed=0:01:41.28    \nframe=  129 fps=1.3 q=36.1 size=    1536KiB time=00:00:05.29 bitrate=2377.9kbits/s speed=0.052x elapsed=0:01:41.81    \nframe=  129 fps=1.3 q=36.1 size=    1536KiB time=00:00:05.29 bitrate=2377.9kbits/s speed=0.0517x elapsed=0:01:42.33    \nframe=  129 fps=1.3 q=36.1 size=    1536KiB time=00:00:05.29 bitrate=2377.9kbits/s speed=0.0514x elapsed=0:01:42.85    \nframe=  130 fps=1.3 q=36.4 size=    1536KiB time=00:00:05.33 bitrate=2359.4kbits/s speed=0.0516x elapsed=0:01:43.38    \nframe=  131 fps=1.3 q=35.4 size=    1536KiB time=00:00:05.37 bitrate=2341.1kbits/s speed=0.0517x elapsed=0:01:43.90    \nframe=  132 fps=1.3 q=28.8 size=    1536KiB time=00:00:05.41 bitrate=2323.1kbits/s speed=0.0519x elapsed=0:01:44.46    \nframe=  132 fps=1.3 q=28.8 size=    1536KiB time=00:00:05.41 bitrate=2323.1kbits/s speed=0.0516x elapsed=0:01:44.98    \nframe=  132 fps=1.3 q=28.8 size=    1536KiB time=00:00:05.41 bitrate=2323.1kbits/s speed=0.0513x elapsed=0:01:45.49    \nframe=  133 fps=1.3 q=33.2 size=    1536KiB time=00:00:05.45 bitrate=2305.3kbits/s speed=0.0515x elapsed=0:01:46.02    \nframe=  134 fps=1.3 q=36.3 size=    1536KiB time=00:00:05.50 bitrate=2287.9kbits/s speed=0.0516x elapsed=0:01:46.54    \nframe=  134 fps=1.3 q=36.3 size=    1536KiB time=00:00:05.50 bitrate=2287.9kbits/s speed=0.0514x elapsed=0:01:47.10    \nframe=  135 fps=1.3 q=36.2 size=    1536KiB time=00:00:05.54 bitrate=2270.7kbits/s speed=0.0515x elapsed=0:01:47.62    \nframe=  136 fps=1.3 q=35.7 size=    1536KiB time=00:00:05.58 bitrate=2253.7kbits/s speed=0.0516x elapsed=0:01:48.16    \nframe=  137 fps=1.3 q=29.2 size=    1536KiB time=00:00:05.62 bitrate=2237.0kbits/s speed=0.0517x elapsed=0:01:48.69    \nframe=  137 fps=1.3 q=29.2 size=    1536KiB time=00:00:05.62 bitrate=2237.0kbits/s speed=0.0515x elapsed=0:01:49.24    \nframe=  138 fps=1.3 q=30.4 size=    1536KiB time=00:00:05.66 bitrate=2220.6kbits/s speed=0.0516x elapsed=0:01:49.78    \nframe=  138 fps=1.3 q=30.4 size=    1536KiB time=00:00:05.66 bitrate=2220.6kbits/s speed=0.0514x elapsed=0:01:50.31    \nframe=  138 fps=1.2 q=30.4 size=    1536KiB time=00:00:05.66 bitrate=2220.6kbits/s speed=0.0511x elapsed=0:01:50.83    \nframe=  139 fps=1.2 q=36.3 size=    1536KiB time=00:00:05.70 bitrate=2204.4kbits/s speed=0.0513x elapsed=0:01:51.34    \nframe=  139 fps=1.2 q=36.3 size=    1536KiB time=00:00:05.70 bitrate=2204.4kbits/s speed=0.051x elapsed=0:01:51.86    \nframe=  139 fps=1.2 q=36.3 size=    1536KiB time=00:00:05.70 bitrate=2204.4kbits/s speed=0.0508x elapsed=0:01:52.37    \nframe=  140 fps=1.2 q=35.7 size=    1536KiB time=00:00:05.75 bitrate=2188.4kbits/s speed=0.0509x elapsed=0:01:52.89    \nframe=  140 fps=1.2 q=35.7 size=    1536KiB time=00:00:05.75 bitrate=2188.4kbits/s speed=0.0507x elapsed=0:01:53.43    \nframe=  140 fps=1.2 q=35.7 size=    1536KiB time=00:00:05.75 bitrate=2188.4kbits/s speed=0.0505x elapsed=0:01:53.95    \nframe=  141 fps=1.2 q=36.1 size=    1536KiB time=00:00:05.79 bitrate=2172.6kbits/s speed=0.0506x elapsed=0:01:54.48    \nframe=  141 fps=1.2 q=36.1 size=    1536KiB time=00:00:05.79 bitrate=2172.6kbits/s speed=0.0504x elapsed=0:01:55.01    \nframe=  142 fps=1.2 q=29.9 size=    1536KiB time=00:00:05.83 bitrate=2157.1kbits/s speed=0.0505x elapsed=0:01:55.52    \nframe=  143 fps=1.2 q=34.9 size=    1792KiB time=00:00:05.87 bitrate=2498.8kbits/s speed=0.0506x elapsed=0:01:56.06    \nframe=  144 fps=1.2 q=35.9 size=    1792KiB time=00:00:05.91 bitrate=2481.2kbits/s speed=0.0508x elapsed=0:01:56.57    \nframe=  145 fps=1.2 q=36.0 size=    1792KiB time=00:00:05.95 bitrate=2463.8kbits/s speed=0.0509x elapsed=0:01:57.09    \nframe=  147 fps=1.2 q=29.4 size=    1792KiB time=00:00:06.04 bitrate=2429.9kbits/s speed=0.0514x elapsed=0:01:57.61    \nframe=  147 fps=1.2 q=29.4 size=    1792KiB time=00:00:06.04 bitrate=2429.9kbits/s speed=0.0511x elapsed=0:01:58.12    \nframe=  148 fps=1.2 q=33.3 size=    1792KiB time=00:00:06.08 bitrate=2413.2kbits/s speed=0.0513x elapsed=0:01:58.64    \nframe=  149 fps=1.3 q=36.2 size=    1792KiB time=00:00:06.12 bitrate=2396.8kbits/s speed=0.0514x elapsed=0:01:59.15    \nframe=  151 fps=1.3 q=29.9 size=    1792KiB time=00:00:06.20 bitrate=2364.6kbits/s speed=0.0519x elapsed=0:01:59.67    \nframe=  153 fps=1.3 q=36.8 size=    1792KiB time=00:00:06.29 bitrate=2333.3kbits/s speed=0.0523x elapsed=0:02:00.20    \nframe=  154 fps=1.3 q=36.3 size=    1792KiB time=00:00:06.33 bitrate=2318.0kbits/s speed=0.0525x elapsed=0:02:00.72    \nframe=  155 fps=1.3 q=35.3 size=    1792KiB time=00:00:06.37 bitrate=2302.8kbits/s speed=0.0526x elapsed=0:02:01.24    \nframe=  157 fps=1.3 q=33.4 size=    1792KiB time=00:00:06.45 bitrate=2273.1kbits/s speed=0.053x elapsed=0:02:01.75    \nframe=  158 fps=1.3 q=35.6 size=    1792KiB time=00:00:06.50 bitrate=2258.5kbits/s speed=0.0532x elapsed=0:02:02.27    \nframe=  159 fps=1.3 q=36.2 size=    1792KiB time=00:00:06.54 bitrate=2244.1kbits/s speed=0.0533x elapsed=0:02:02.77    \nframe=  160 fps=1.3 q=29.7 size=    1792KiB time=00:00:06.58 bitrate=2229.9kbits/s speed=0.0534x elapsed=0:02:03.29    \nframe=  160 fps=1.3 q=29.7 size=    1792KiB time=00:00:06.58 bitrate=2229.9kbits/s speed=0.0532x elapsed=0:02:03.82    \nframe=  161 fps=1.3 q=33.7 size=    1792KiB time=00:00:06.62 bitrate=2215.9kbits/s speed=0.0533x elapsed=0:02:04.37    \nframe=  161 fps=1.3 q=33.7 size=    1792KiB time=00:00:06.62 bitrate=2215.9kbits/s speed=0.053x elapsed=0:02:04.88    \nframe=  161 fps=1.3 q=33.7 size=    1792KiB time=00:00:06.62 bitrate=2215.9kbits/s speed=0.0528x elapsed=0:02:05.41    \nframe=  162 fps=1.3 q=36.2 size=    1792KiB time=00:00:06.66 bitrate=2202.1kbits/s speed=0.0529x elapsed=0:02:05.95    \nframe=  162 fps=1.3 q=36.2 size=    1792KiB time=00:00:06.66 bitrate=2202.1kbits/s speed=0.0527x elapsed=0:02:06.46    \nframe=  164 fps=1.3 q=29.9 size=    1792KiB time=00:00:06.75 bitrate=2174.9kbits/s speed=0.0532x elapsed=0:02:06.98    \nframe=  165 fps=1.3 q=33.4 size=    2048KiB time=00:00:06.79 bitrate=2470.3kbits/s speed=0.0533x elapsed=0:02:07.50    \nframe=  165 fps=1.3 q=33.4 size=    2048KiB time=00:00:06.79 bitrate=2470.3kbits/s speed=0.0531x elapsed=0:02:08.01    \nframe=  165 fps=1.3 q=33.4 size=    2048KiB time=00:00:06.79 bitrate=2470.3kbits/s speed=0.0528x elapsed=0:02:08.54    \nframe=  165 fps=1.3 q=33.4 size=    2048KiB time=00:00:06.79 bitrate=2470.3kbits/s speed=0.0526x elapsed=0:02:09.06    \nframe=  166 fps=1.3 q=35.7 size=    2048KiB time=00:00:06.83 bitrate=2455.3kbits/s speed=0.0527x elapsed=0:02:09.59    \nframe=  167 fps=1.3 q=35.2 size=    2048KiB time=00:00:06.87 bitrate=2440.4kbits/s speed=0.0528x elapsed=0:02:10.10    \nframe=  168 fps=1.3 q=29.3 size=    2048KiB time=00:00:06.91 bitrate=2425.7kbits/s speed=0.053x elapsed=0:02:10.61    \nframe=  168 fps=1.3 q=29.3 size=    2048KiB time=00:00:06.91 bitrate=2425.7kbits/s speed=0.0527x elapsed=0:02:11.14    \nframe=  169 fps=1.3 q=34.5 size=    2048KiB time=00:00:06.95 bitrate=2411.1kbits/s speed=0.0528x elapsed=0:02:11.68    \nframe=  169 fps=1.3 q=34.5 size=    2048KiB time=00:00:06.95 bitrate=2411.1kbits/s speed=0.0526x elapsed=0:02:12.24    \nframe=  170 fps=1.3 q=35.1 size=    2048KiB time=00:00:06.95 bitrate=2411.1kbits/s speed=0.0524x elapsed=0:02:12.77    \nframe=  170 fps=1.3 q=35.1 size=    2048KiB time=00:00:07.00 bitrate=2396.8kbits/s speed=0.0525x elapsed=0:02:13.30    \nframe=  171 fps=1.3 q=35.3 size=    2048KiB time=00:00:07.04 bitrate=2382.6kbits/s speed=0.0526x elapsed=0:02:13.82    \nframe=  171 fps=1.3 q=35.3 size=    2048KiB time=00:00:07.04 bitrate=2382.6kbits/s speed=0.0524x elapsed=0:02:14.35    \nframe=  172 fps=1.3 q=35.0 size=    2048KiB time=00:00:07.08 bitrate=2368.6kbits/s speed=0.0525x elapsed=0:02:14.89    \nframe=  172 fps=1.3 q=35.0 size=    2048KiB time=00:00:07.08 bitrate=2368.6kbits/s speed=0.0523x elapsed=0:02:15.43    \nframe=  173 fps=1.3 q=29.5 size=    2048KiB time=00:00:07.12 bitrate=2354.7kbits/s speed=0.0524x elapsed=0:02:15.97    \nframe=  173 fps=1.3 q=29.5 size=    2048KiB time=00:00:07.12 bitrate=2354.7kbits/s speed=0.0522x elapsed=0:02:16.48    \nframe=  175 fps=1.3 q=35.6 size=    2048KiB time=00:00:07.20 bitrate=2327.5kbits/s speed=0.0526x elapsed=0:02:17.01    \nframe=  175 fps=1.3 q=35.6 size=    2048KiB time=00:00:07.20 bitrate=2327.5kbits/s speed=0.0524x elapsed=0:02:17.54    \nframe=  176 fps=1.3 q=35.6 size=    2048KiB time=00:00:07.25 bitrate=2314.1kbits/s speed=0.0525x elapsed=0:02:18.06    \nframe=  177 fps=1.3 q=35.6 size=    2048KiB time=00:00:07.29 bitrate=2300.9kbits/s speed=0.0526x elapsed=0:02:18.59    \nframe=  178 fps=1.3 q=30.0 size=    2048KiB time=00:00:07.33 bitrate=2287.9kbits/s speed=0.0527x elapsed=0:02:19.11    \nframe=  178 fps=1.3 q=30.0 size=    2048KiB time=00:00:07.33 bitrate=2287.9kbits/s speed=0.0525x elapsed=0:02:19.63    \nframe=  179 fps=1.3 q=33.4 size=    2048KiB time=00:00:07.37 bitrate=2274.9kbits/s speed=0.0526x elapsed=0:02:20.15    \nframe=  179 fps=1.3 q=33.4 size=    2048KiB time=00:00:07.37 bitrate=2274.9kbits/s speed=0.0524x elapsed=0:02:20.70    \nframe=  179 fps=1.3 q=33.4 size=    2048KiB time=00:00:07.37 bitrate=2274.9kbits/s speed=0.0522x elapsed=0:02:21.22    \nframe=  180 fps=1.3 q=36.7 size=    2048KiB time=00:00:07.41 bitrate=2262.1kbits/s speed=0.0523x elapsed=0:02:21.72    \nframe=  180 fps=1.3 q=36.7 size=    2048KiB time=00:00:07.41 bitrate=2262.1kbits/s speed=0.0521x elapsed=0:02:22.24    \nframe=  180 fps=1.3 q=36.7 size=    2048KiB time=00:00:07.41 bitrate=2262.1kbits/s speed=0.0519x elapsed=0:02:22.77    \nframe=  181 fps=1.3 q=36.1 size=    2048KiB time=00:00:07.45 bitrate=2249.5kbits/s speed=0.0521x elapsed=0:02:23.28    \nframe=  182 fps=1.3 q=29.7 size=    2048KiB time=00:00:07.50 bitrate=2237.0kbits/s speed=0.0521x elapsed=0:02:23.81    \nframe=  182 fps=1.3 q=29.7 size=    2048KiB time=00:00:07.50 bitrate=2237.0kbits/s speed=0.052x elapsed=0:02:24.36    \nframe=  184 fps=1.3 q=35.7 size=    2304KiB time=00:00:07.58 bitrate=2489.0kbits/s speed=0.0523x elapsed=0:02:24.89    \nframe=  184 fps=1.3 q=35.7 size=    2304KiB time=00:00:07.58 bitrate=2489.0kbits/s speed=0.0521x elapsed=0:02:25.42    \nframe=  185 fps=1.3 q=35.5 size=    2304KiB time=00:00:07.62 bitrate=2475.4kbits/s speed=0.0522x elapsed=0:02:25.96    \nframe=  186 fps=1.3 q=35.4 size=    2304KiB time=00:00:07.66 bitrate=2461.9kbits/s speed=0.0523x elapsed=0:02:26.48    \nframe=  186 fps=1.3 q=35.4 size=    2304KiB time=00:00:07.66 bitrate=2461.9kbits/s speed=0.0522x elapsed=0:02:27.00    \nframe=  187 fps=1.3 q=29.8 size=    2304KiB time=00:00:07.70 bitrate=2448.6kbits/s speed=0.0522x elapsed=0:02:27.53    \nframe=  187 fps=1.3 q=29.8 size=    2304KiB time=00:00:07.70 bitrate=2448.6kbits/s speed=0.0521x elapsed=0:02:28.04    \nframe=  187 fps=1.3 q=29.8 size=    2304KiB time=00:00:07.70 bitrate=2448.6kbits/s speed=0.0519x elapsed=0:02:28.57    \nframe=  188 fps=1.3 q=33.1 size=    2304KiB time=00:00:07.75 bitrate=2435.4kbits/s speed=0.052x elapsed=0:02:29.09    \nframe=  189 fps=1.3 q=36.8 size=    2304KiB time=00:00:07.79 bitrate=2422.4kbits/s speed=0.0521x elapsed=0:02:29.61    \nframe=  189 fps=1.3 q=36.8 size=    2304KiB time=00:00:07.79 bitrate=2422.4kbits/s speed=0.0519x elapsed=0:02:30.14    \nframe=  189 fps=1.3 q=36.8 size=    2304KiB time=00:00:07.79 bitrate=2422.4kbits/s speed=0.0517x elapsed=0:02:30.68    \nframe=  190 fps=1.3 q=29.8 size=    2304KiB time=00:00:07.83 bitrate=2409.5kbits/s speed=0.0518x elapsed=0:02:31.20    \nframe=  191 fps=1.3 q=34.1 size=    2304KiB time=00:00:07.87 bitrate=2396.8kbits/s speed=0.0519x elapsed=0:02:31.71    \nframe=  191 fps=1.3 q=34.1 size=    2304KiB time=00:00:07.87 bitrate=2396.8kbits/s speed=0.0517x elapsed=0:02:32.22    \nframe=  192 fps=1.3 q=35.9 size=    2304KiB time=00:00:07.91 bitrate=2384.2kbits/s speed=0.0518x elapsed=0:02:32.76    \nframe=  193 fps=1.3 q=35.8 size=    2304KiB time=00:00:07.95 bitrate=2371.7kbits/s speed=0.0519x elapsed=0:02:33.27    \nframe=  193 fps=1.3 q=35.8 size=    2304KiB time=00:00:07.95 bitrate=2371.7kbits/s speed=0.0517x elapsed=0:02:33.80    \nframe=  194 fps=1.3 q=29.6 size=    2304KiB time=00:00:08.00 bitrate=2359.3kbits/s speed=0.0518x elapsed=0:02:34.32    \nframe=  195 fps=1.3 q=30.2 size=    2304KiB time=00:00:08.04 bitrate=2347.1kbits/s speed=0.0519x elapsed=0:02:34.85    \nframe=  195 fps=1.3 q=30.2 size=    2304KiB time=00:00:08.04 bitrate=2347.1kbits/s speed=0.0517x elapsed=0:02:35.39    \nframe=  196 fps=1.3 q=35.8 size=    2304KiB time=00:00:08.08 bitrate=2335.0kbits/s speed=0.0518x elapsed=0:02:35.92    \nframe=  196 fps=1.3 q=35.8 size=    2304KiB time=00:00:08.08 bitrate=2335.0kbits/s speed=0.0517x elapsed=0:02:36.44    \nframe=  196 fps=1.2 q=35.8 size=    2304KiB time=00:00:08.08 bitrate=2335.0kbits/s speed=0.0515x elapsed=0:02:36.97    \nframe=  196 fps=1.2 q=35.8 size=    2304KiB time=00:00:08.08 bitrate=2335.0kbits/s speed=0.0513x elapsed=0:02:37.50    \nframe=  197 fps=1.2 q=36.2 size=    2304KiB time=00:00:08.12 bitrate=2323.0kbits/s speed=0.0514x elapsed=0:02:38.02    \nframe=  197 fps=1.2 q=36.2 size=    2304KiB time=00:00:08.12 bitrate=2323.0kbits/s speed=0.0512x elapsed=0:02:38.54    \nframe=  198 fps=1.2 q=37.2 size=    2304KiB time=00:00:08.16 bitrate=2311.2kbits/s speed=0.0513x elapsed=0:02:39.08    \nframe=  198 fps=1.2 q=37.2 size=    2304KiB time=00:00:08.16 bitrate=2311.2kbits/s speed=0.0512x elapsed=0:02:39.61    \nframe=  199 fps=1.2 q=30.3 size=    2304KiB time=00:00:08.20 bitrate=2299.5kbits/s speed=0.0513x elapsed=0:02:40.12    \nframe=  199 fps=1.2 q=30.3 size=    2304KiB time=00:00:08.20 bitrate=2299.5kbits/s speed=0.0511x elapsed=0:02:40.64    \nframe=  200 fps=1.2 q=31.9 size=    2304KiB time=00:00:08.25 bitrate=2287.8kbits/s speed=0.0512x elapsed=0:02:41.16    \nframe=  200 fps=1.2 q=31.9 size=    2304KiB time=00:00:08.25 bitrate=2287.8kbits/s speed=0.051x elapsed=0:02:41.69    \nframe=  202 fps=1.2 q=37.0 size=    2304KiB time=00:00:08.33 bitrate=2265.0kbits/s speed=0.0514x elapsed=0:02:42.21    \nframe=  202 fps=1.2 q=37.0 size=    2304KiB time=00:00:08.33 bitrate=2265.0kbits/s speed=0.0512x elapsed=0:02:42.74    \nframe=  203 fps=1.2 q=37.6 size=    2304KiB time=00:00:08.37 bitrate=2253.7kbits/s speed=0.0513x elapsed=0:02:43.25    \nframe=  203 fps=1.2 q=37.6 size=    2304KiB time=00:00:08.37 bitrate=2253.7kbits/s speed=0.0511x elapsed=0:02:43.81    \nframe=  204 fps=1.2 q=30.1 size=    2304KiB time=00:00:08.41 bitrate=2242.5kbits/s speed=0.0512x elapsed=0:02:44.37    \nframe=  205 fps=1.2 q=34.6 size=    2560KiB time=00:00:08.45 bitrate=2479.4kbits/s speed=0.0513x elapsed=0:02:44.91    \nframe=  205 fps=1.2 q=34.6 size=    2560KiB time=00:00:08.45 bitrate=2479.4kbits/s speed=0.0511x elapsed=0:02:45.44    \nframe=  207 fps=1.2 q=37.0 size=    2560KiB time=00:00:08.54 bitrate=2455.2kbits/s speed=0.0515x elapsed=0:02:45.96    \nframe=  209 fps=1.3 q=34.3 size=    2560KiB time=00:00:08.62 bitrate=2431.5kbits/s speed=0.0518x elapsed=0:02:46.48    \nframe=  211 fps=1.3 q=36.5 size=    2560KiB time=00:00:08.70 bitrate=2408.3kbits/s speed=0.0521x elapsed=0:02:47.00    \nframe=  212 fps=1.3 q=29.6 size=    2560KiB time=00:00:08.75 bitrate=2396.8kbits/s speed=0.0522x elapsed=0:02:47.50    \nframe=  213 fps=1.3 q=34.1 size=    2560KiB time=00:00:08.79 bitrate=2385.4kbits/s speed=0.0523x elapsed=0:02:48.03    \nframe=  215 fps=1.3 q=36.6 size=    2560KiB time=00:00:08.87 bitrate=2363.0kbits/s speed=0.0527x elapsed=0:02:48.56    \nframe=  217 fps=1.3 q=32.6 size=    2560KiB time=00:00:08.95 bitrate=2341.0kbits/s speed=0.053x elapsed=0:02:49.07    \nframe=  219 fps=1.3 q=35.6 size=    2560KiB time=00:00:09.04 bitrate=2319.5kbits/s speed=0.0533x elapsed=0:02:49.59    \nframe=  221 fps=1.3 q=29.1 size=    2560KiB time=00:00:09.12 bitrate=2298.3kbits/s speed=0.0536x elapsed=0:02:50.11    \nframe=  223 fps=1.3 q=35.7 size=    2816KiB time=00:00:09.20 bitrate=2505.2kbits/s speed=0.054x elapsed=0:02:50.62    \nframe=  225 fps=1.3 q=36.2 size=    2816KiB time=00:00:09.29 bitrate=2482.8kbits/s speed=0.0543x elapsed=0:02:51.13    \nframe=  227 fps=1.3 q=30.4 size=    2816KiB time=00:00:09.37 bitrate=2460.7kbits/s speed=0.0546x elapsed=0:02:51.65    \nframe=  229 fps=1.3 q=35.1 size=    2816KiB time=00:00:09.45 bitrate=2439.0kbits/s speed=0.0549x elapsed=0:02:52.17    \nframe=  231 fps=1.3 q=28.9 size=    2816KiB time=00:00:09.54 bitrate=2417.7kbits/s speed=0.0553x elapsed=0:02:52.69    \nframe=  233 fps=1.3 q=34.9 size=    2816KiB time=00:00:09.62 bitrate=2396.8kbits/s speed=0.0556x elapsed=0:02:53.21    \nframe=  235 fps=1.4 q=32.6 size=    2816KiB time=00:00:09.70 bitrate=2376.2kbits/s speed=0.0559x elapsed=0:02:53.73    \nframe=  237 fps=1.4 q=29.9 size=    2816KiB time=00:00:09.79 bitrate=2356.0kbits/s speed=0.0562x elapsed=0:02:54.24    \n[mp4 @ 0000016a10d6b780] Starting second pass: moving the moov atom to the beginning of the file\n[out#0/mp4 @ 0000016a10d6b680] video:3025KiB audio:0KiB subtitle:0KiB other streams:0KiB global headers:2KiB muxing overhead: 0.204383%\nframe=  240 fps=1.4 q=29.6 Lsize=    3031KiB time=00:00:09.91 bitrate=2503.6kbits/s speed=0.0569x elapsed=0:02:54.41    \nx265 [info]: frame I:      1, Avg QP:30.85  kb/s: 18406.46\nx265 [info]: frame P:     54, Avg QP:30.38  kb/s: 7740.37 \nx265 [info]: frame B:    185, Avg QP:35.89  kb/s: 854.48  \nx265 [info]: Weighted P-Frames: Y:0.0% UV:0.0%\n\nencoded 240 frames in 174.31s (1.38 fps), 2476.94 kb/s, Avg QP:34.63\n",
  "seconds": 174.56819581985474,
  "probe_out": {}
}